{
  "accessors": [
    {
      "bufferView": 2,
      "componentType": 5126,
      "count": 1800,
      "max": [
        3.4477148056030273,
        1.9989783763885498,
        1.0885311365127563
      ],
      "min": [
        -3.4477148056030273,
        -0.055511146783828735,
        -1.0885311365127563
      ],
      "type": "VEC3"
    },
    {
      "bufferView": 2,
      "byteOffset": 21600,
      "componentType": 5126,
      "count": 1800,
      "type": "VEC3"
    },
    {
      "bufferView": 1,
      "componentType": 5126,
      "count": 1800,
      "type": "VEC2"
    },
    {
      "bufferView": 0,
      "componentType": 5125,
      "count": 2688,
      "type": "SCALAR"
    },
    {
      "bufferView": 2,
      "byteOffset": 43200,
      "componentType": 5126,
      "count": 624,
      "max": [
        1.0,
        5.81160435331185e-08,
        2.3295400142669678
      ],
      "min": [
        -1.0,
        -0.005692444741725922,
        -2.2228434085845947
      ],
      "type": "VEC3"
    },
    {
      "bufferView": 2,
      "byteOffset": 50688,
      "componentType": 5126,
      "count": 624,
      "type": "VEC3"
    },
    {
      "bufferView": 1,
      "byteOffset": 14400,
      "componentType": 5126,
      "count": 624,
      "type": "VEC2"
    },
    {
      "bufferView": 0,
      "byteOffset": 10752,
      "componentType": 5125,
      "count": 1206,
      "type": "SCALAR"
    },
    {
      "bufferView": 2,
      "byteOffset": 58176,
      "componentType": 5126,
      "count": 4,
      "max": [
        1.0,
        0.0,
        1.0
      ],
      "min": [
        -1.0,
        0.0,
        -1.0
      ],
      "type": "VEC3"
    },
    {
      "bufferView": 2,
      "byteOffset": 58224,
      "componentType": 5126,
      "count": 4,
      "type": "VEC3"
    },
    {
      "bufferView": 1,
      "byteOffset": 19392,
      "componentType": 5126,
      "count": 4,
      "type": "VEC2"
    },
    {
      "bufferView": 0,
      "byteOffset": 15576,
      "componentType": 5125,
      "count": 6,
      "type": "SCALAR"
    },
    {
      "bufferView": 4,
      "componentType": 5126,
      "count": 160,
      "max": [
        6.666666507720947
      ],
      "min": [
        0.0416666679084301
      ],
      "type": "SCALAR"
    },
    {
      "bufferView": 3,
      "componentType": 5126,
      "count": 160,
      "type": "VEC3"
    },
    {
      "bufferView": 4,
      "byteOffset": 640,
      "componentType": 5126,
      "count": 160,
      "max": [
        6.666666507720947
      ],
      "min": [
        0.0416666679084301
      ],
      "type": "SCALAR"
    },
    {
      "bufferView": 3,
      "byteOffset": 1920,
      "componentType": 5126,
      "count": 160,
      "type": "VEC3"
    }
  ],
  "animations": [
    {
      "channels": [
        {
          "sampler": 0,
          "target": {
            "node": 3,
            "path": "translation"
          }
        },
        {
          "sampler": 1,
          "target": {
            "node": 5,
            "path": "translation"
          }
        }
      ],
      "name": "Animation",
      "samplers": [
        {
          "input": 12,
          "interpolation": "LINEAR",
          "output": 13
        },
        {
          "input": 14,
          "interpolation": "LINEAR",
          "output": 15
        }
      ]
    }
  ],
  "asset": {
    "generator": "fab-model-conversion",
    "version": "2.0"
  },
  "bufferViews": [
    {
      "buffer": 0,
      "byteLength": 15600,
      "target": 34963
    },
    {
      "buffer": 0,
      "byteLength": 19424,
      "byteOffset": 15600,
      "byteStride": 8,
      "target": 34962
    },
    {
      "buffer": 0,
      "byteLength": 58272,
      "byteOffset": 35024,
      "byteStride": 12,
      "target": 34962
    },
    {
      "buffer": 0,
      "byteLength": 3840,
      "byteOffset": 93296
    },
    {
      "buffer": 0,
      "byteLength": 1280,
      "byteOffset": 97136
    }
  ],
  "buffers": [
    {
      "byteLength": 98416,
      "uri": "scene.bin"
    }
  ],
  "extensionsUsed": [
    "KHR_materials_clearcoat"
  ],
  "materials": [
    {
      "doubleSided": true,
      "name": "paper",
      "pbrMetallicRoughness": {
        "baseColorFactor": [
          0.8,
          0.8,
          0.8,
          1.0
        ],
        "metallicFactor": 0.0,
        "roughnessFactor": 0.557635
      }
    },
    {
      "doubleSided": true,
      "name": "black",
      "pbrMetallicRoughness": {
        "baseColorFactor": [
          0.0,
          0.0,
          0.0,
          1.0
        ],
        "metallicFactor": 0.0,
        "roughnessFactor": 0.557635
      }
    },
    {
      "extensions": {
        "KHR_materials_clearcoat": {
          "clearcoatFactor": 1,
          "clearcoatRoughnessFactor": 0.04
        }
      },
      "name": "water",
      "pbrMetallicRoughness": {
        "baseColorFactor": [
          0.0404822,
          0.0907234,
          0.462356,
          1.0
        ],
        "metallicFactor": 0.384615,
        "roughnessFactor": 0.212821
      }
    }
  ],
  "meshes": [
    {
      "name": "Object_0",
      "primitives": [
        {
          "attributes": {
            "NORMAL": 1,
            "POSITION": 0,
            "TEXCOORD_0": 2
          },
          "indices": 3,
          "material": 0,
          "mode": 4
        }
      ]
    },
    {
      "name": "Object_1",
      "primitives": [
        {
          "attributes": {
            "NORMAL": 5,
            "POSITION": 4,
            "TEXCOORD_0": 6
          },
          "indices": 7,
          "material": 1,
          "mode": 4
        }
      ]
    },
    {
      "name": "Object_2",
      "primitives": [
        {
          "attributes": {
            "NORMAL": 9,
            "POSITION": 8,
            "TEXCOORD_0": 10
          },
          "indices": 11,
          "material": 2,
          "mode": 4
        }
      ]
    }
  ],
  "nodes": [
    {
      "children": [
        1
      ],
      "matrix": [
        1.0,
        0.0,
        0.0,
        0.0,
        0.0,
        2.220446049250313e-16,
        -1.0,
        0.0,
        0.0,
        1.0,
        2.220446049250313e-16,
        0.0,
        0.0,
        0.0,
        0.0,
        1.0
      ],
      "name": "Sketchfab_model"
    },
    {
      "children": [
        2
      ],
      "name": "root"
    },
    {
      "children": [
        3,
        5,
        7
      ],
      "matrix": [
        1.0,
        0.0,
        0.0,
        0.0,
        0.0,
        2.220446049250313e-16,
        1.0,
        0.0,
        0.0,
        -1.0,
        2.220446049250313e-16,
        0.0,
        0.0,
        0.0,
        0.0,
        1.0
      ],
      "name": "GLTF_SceneRootNode"
    },
    {
      "children": [
        4
      ],
      "name": "boat_0",
      "rotation": [
        0.0,
        0.0,
        0.0,
        1.0
      ],
      "scale": [
        1.0,
        1.0,
        1.0
      ],
      "translation": [
        0.0,
        0.0,
        0.0
      ]
    },
    {
      "mesh": 0,
      "name": "Object_4"
    },
    {
      "children": [
        6
      ],
      "name": "body_3",
      "rotation": [
        0.7071067690849304,
        0.0,
        0.0,
        0.7071067690849304
      ],
      "scale": [
        0.26324892044067383,
        0.26324892044067383,
        0.26324892044067383
      ],
      "translation": [
        -1.2017452716827393,
        1.3705049753189087,
        0.0
      ]
    },
    {
      "mesh": 1,
      "name": "Object_6"
    },
    {
      "children": [
        8
      ],
      "matrix": [
        100.0,
        0.0,
        0.0,
        0.0,
        0.0,
        100.0,
        0.0,
        0.0,
        0.0,
        0.0,
        100.0,
        0.0,
        0.0,
        0.20000000298023224,
        0.0,
        1.0
      ],
      "name": "Plane_4"
    },
    {
      "mesh": 2,
      "name": "Object_8"
    }
  ],
  "scene": 0,
  "scenes": [
    {
      "name": "Sketchfab_Scene",
      "nodes": [
        0
      ]
    }
  ]
}
